<svg width="41" height="20" viewBox="0 0 41 20" fill="none" xmlns="http://www.w3.org/2000/svg">
<rect x="0.75" y="3" width="39.5" height="15" rx="7.5" fill="#17494D"/>
<circle cx="10.5" cy="10.25" r="9.5" fill="white" stroke="#03363D" stroke-width="0.5"/>
<g clip-path="url(#clip0_9502_15)">
<path d="M11.7083 3C9.78612 3.00208 7.94327 3.76659 6.58408 5.12577C5.22489 6.48496 4.46038 8.32782 4.4583 10.25C4.36587 15.6609 10.5187 19.3034 15.207 16.5883L16.1453 16.0675L15.2131 15.5359C11.1652 13.3077 11.4612 7.15607 15.6964 5.32182L16.6758 4.88017L15.7895 4.27238C14.5892 3.445 13.1661 3.00132 11.7083 3ZM11.7083 16.2917C10.1065 16.2899 8.5708 15.6528 7.43814 14.5202C6.30549 13.3875 5.6684 11.8518 5.66664 10.25C5.57299 5.95015 10.3568 2.87917 14.2186 4.76296C13.3145 5.36972 12.565 6.17974 12.0301 7.12816C11.4953 8.07658 11.1899 9.13705 11.1385 10.2247C11.087 11.3123 11.2909 12.3969 11.7339 13.3915C12.1769 14.3862 12.8466 15.2633 13.6894 15.9527C13.0533 16.1784 12.3832 16.2931 11.7083 16.2917Z" fill="#17494D"/>
</g>
<defs>
<clipPath id="clip0_9502_15">
<rect width="14.5" height="14.5" fill="white" transform="matrix(1 0 0 -1 3.25 17.5)"/>
</clipPath>
</defs>
</svg>
